Here's an SVG version with a black fill, suitable for a light theme:

```xml
<svg width="800px" height="800px" viewBox="0 -198 512 512" version="1.1" xmlns="http://www.w3.org/2000/svg" xmlns:xlink="http://www.w3.org/1999/xlink" preserveAspectRatio="xMidYMid" fill="#000000">

  <g id="SVGRepo_bgCarrier" stroke-width="0"/>
  <g id="SVGRepo_tracerCarrier" stroke-linecap="round" stroke-linejoin="round"/>
  
  <g id="SVGRepo_iconCarrier">
    <g>
      <g>
        <path d="M159.889142,17.9305215 C157.980727,10.8778981 152.47152,5.36869078 145.418897,3.46027607 C132.731218,0 81.6659313,0 81.6659313,0 C81.6659313,0 30.600645,0.104856851 17.9129661,3.56513292 C10.8603427,5.47354763 5.35113537,10.9827549 3.44272066,18.0353783 C-0.395040075,40.5796012 -1.88400735,74.9307055 3.54757751,96.5731595 C5.45599222,103.625783 10.9651995,109.13499 18.0178229,111.043405 C30.7055018,114.503681 81.7707881,114.503681 81.7707881,114.503681 C81.7707881,114.503681 132.836074,114.503681 145.523753,111.043405 C152.576377,109.13499 158.085584,103.625783 159.993999,96.5731595 C164.041473,73.9974796 165.28927,39.6673466 159.889142,17.9305215 Z" fill="#000000"/> 
        <polygon fill="#000000" points="65.4131194 81.7883436 107.775287 57.2518405 65.4131194 32.7153374"/> 
      </g> 
      <path d="M491.23679,33.2396217 C496.794203,33.2396217 500.988477,34.2881902 503.924469,36.2804703 C506.860461,38.2727505 508.957598,41.418456 510.21588,45.7175869 C511.474162,50.0167178 511.998447,55.8887014 511.998447,63.4383947 L511.998447,75.7066462 L485.050236,75.7066462 L485.050236,79.4814928 L485.469663,89.8623211 C485.784234,92.1691718 486.308518,93.8468814 487.147373,94.8954499 C487.986228,95.9440184 489.349367,96.4683027 491.131933,96.4683027 C493.543641,96.4683027 495.221351,95.524591 496.060205,93.6371677 C497.003917,91.7497444 497.423344,88.6040389 497.528201,84.304908 L511.474162,85.1437628 C511.579019,85.7729039 511.579019,86.6117587 511.579019,87.6603272 C511.579019,94.2663088 509.796453,99.1945808 506.126463,102.445143 C502.456473,105.695706 497.423344,107.373415 490.817363,107.373415 C482.848242,107.373415 477.290829,104.856851 474.145124,99.9285787 C470.999418,95.0003067 469.321708,87.2408998 469.321708,76.8600716 L469.321708,64.1723926 C469.678222,46.346728 472.813442,33.2920501 491.23679,33.2396217 Z" fill="#000000"/>
    </g>
  </g>

</svg>